#!OML:ASF F:\VICON\USERDATA\INSTALL\rory3\rory3.ASF
:FULLY-SPECIFIED
:DEGREES
35
root -7.051594040016594 17.675328344932442 5.155458238412285 -2.177200201063755 28.713385147072607 -13.199332434884724
lfemur 1.2277076947196086 16.260324219201305 7.274589646537642
ltibia 34.83177640868247
lfoot 12.33984831140772 9.534737562122029
ltoes -25.933686142648202
rfemur -28.146161932937662 15.74776397355706 25.29713973248478
rtibia 34.48571354480616
rfoot -2.061288706759294 32.90266965707898
rtoes 41.86034662261718
lowerback 2.740761013517644 -8.552804517913183 -16.3470930756946
upperback -2.9467768823487943 -11.983680772710475 -4.301113300573502
thorax -1.6070605711473263 -5.735277292869975 3.6160056629251454
lowerneck -4.624124957096956 20.14615922532683 0.5394210714320606
upperneck 6.881810529834553 29.032350104004887 -12.64466505969196
head 5.817523397835949 13.417431898211685 -1.4479301244516591
lclavicle -5.361510461033057e-15 -4.016051568186408e-15
lhumerus 110.93696650912345 -32.13801572871449 46.14487398895534
lradius 39.12704446532844
lwrist 3.0440871607223556
lhand -28.36753258801769 -5.412430697480339
lfingers 7.125020000000003
lthumb -181.71936251478638 268.28603850510535
rclavicle -5.3615104610330565e-15 -4.016051568186407e-15
rhumerus 41.52295826045083 -25.719637193157432 -49.08513440473445
rradius 106.36227923725725
rwrist 11.104884514920997
rhand -61.998938775849005 38.26487472951146
rfingers 7.125020000000003
rthumb -34.03561603026706 10.799863481162731
36
root -7.039013641001501 17.683817172665723 5.152633878214707 -2.287045307293738 28.47137513833807 -13.372346798900082
lfemur 1.2358892809137245 16.335256321876578 7.612961574028009
ltibia 35.01981971927546
lfoot 11.88267973934633 9.064390034400898
ltoes -27.53289699750518
rfemur -28.270428115389517 16.298348544789334 25.47936355531258
rtibia 34.157654920130796
rfoot -2.122191506604466 32.64177633374325
rtoes 41.71272135936594
lowerback 2.815742677649923 -8.524274318036436 -16.513018385190264
upperback -2.9556352090735563 -12.06113990779045 -4.509958263656123
thorax -1.6498179075059516 -5.822421600651648 3.412099505718686
lowerneck -4.620372550999924 20.256790619244775 0.5392218824878908
upperneck 6.574919924401481 29.099593012074713 -12.499327434351756
head 5.7661908846452645 13.448949912926981 -1.4252124240129738
lclavicle -6.049257253037713e-15 -4.481674275058083e-15
lhumerus 111.39704158388008 -31.848548419751648 45.55469744964108
lradius 39.07785048098068
lwrist 2.847876778739625
lhand -28.77315351350898 -5.346320185182449
lfingers 7.125020000000003
lthumb -182.11020203194084 268.1635234753636
rclavicle -6.049257253037712e-15 -4.481674275058083e-15
rhumerus 40.89474828078718 -26.58429436728445 -47.286151098169114
rradius 106.56600972549415
rwrist 10.72898826597564
rhand -62.44242878635676 38.541789541393115
rfingers 7.125020000000003
rthumb -34.45635478380441 11.090373231359422
37
root -7.052152701405682 17.68213513250511 5.195465197244746 -2.019829930483681 28.834649172605577 -12.839812511788438
lfemur 1.6987634866050243 16.659657520961282 8.078535663363303
ltibia 35.28660664240057
lfoot 11.82066977491904 9.147918658173282
ltoes -29.452299700198015
rfemur -28.12457758989505 16.55411263604755 25.45462162110896
rtibia 33.95103092795446
rfoot -2.183346675098104 33.134198680258265
rtoes 41.444392149938864
lowerback 2.985664589513232 -8.594323037977697 -16.731016996334624
upperback -2.869704997542327 -12.205439186897278 -4.609588448164945
thorax -1.744160386175223 -5.876821379753546 3.3630907477046907
lowerneck -4.3380564816373175 20.360877386691353 0.5915958430601294
upperneck 6.989547142391359 29.23126355128774 -12.531455307832942
head 5.791431317125349 13.534555078860029 -1.4232538643499448
lclavicle -6.097668270831733e-15 -4.568565207175867e-15
lhumerus 110.80853603011388 -32.20084802738328 45.52382469777585
lradius 39.21297305228654
lwrist 2.478119782826564
lhand -28.599411185995024 -4.601777467829155
lfingers 7.125020000000003
lthumb -181.94376765944148 279.84415280717826
rclavicle -6.097668270831733e-15 -4.568565207175867e-15
rhumerus 39.6624216451901 -27.489685796528377 -45.937327304952866
rradius 106.04825328427161
rwrist 10.090740997626657
rhand -63.071460222113764 39.29095470866438
rfingers 7.125020000000003
rthumb -35.059290236305756 11.848083180357865
38
root -7.045370129642846 17.687761607942097 5.173830081879594 -2.154567167039488 28.763387836116838 -12.968484127910699
lfemur 1.7058205810454439 16.982827600449827 8.742669214713503
ltibia 35.60310020016023
lfoot 11.460661902046006 8.717277510060075
ltoes -29.738464797190883
rfemur -27.880337499147984 16.70407190697645 25.926480925488953
rtibia 33.756061657945786
rfoot -2.035907686137465 33.36575009995893
rtoes 40.17229852395178
lowerback 3.2464727573665764 -8.551278813875022 -16.805217218922948
upperback -2.7253834184881174 -12.17496627828014 -4.591087313248817
thorax -1.7422205912623487 -5.8613735635147615 3.4527100023516133
lowerneck -4.192361126970969 20.481074465446717 0.5001846504408203
upperneck 7.17552795684712 29.344702995351806 -12.464960055292593
head 5.883772664449806 13.577588859627333 -1.407739679423597
lclavicle -5.982725558240434e-15 -4.483335975883959e-15
lhumerus 111.67261335092232 -32.21213291005139 44.90729150691669
lradius 38.74164540750663
lwrist 2.4704040301972903
lhand -27.852355745245877 -4.522378189506
lfingers 7.125020000000003
lthumb -181.22542835089612 294.30583709264204
rclavicle -5.982725558240434e-15 -4.483335975883958e-15
rhumerus 39.36589435850009 -27.533204275079527 -45.61965290422472
rradius 105.77421893637893
rwrist 8.98437570862809
rhand -63.4808121316901 39.52508149665295
rfingers 7.125020000000003
rthumb -35.45003052224105 12.10873923088808
